<?xml version="1.0" encoding="UTF-8"?>
<svg width="1200pt" height="1200pt" version="1.1" viewBox="0 0 1200 1200" xmlns="http://www.w3.org/2000/svg">
 <path d="m1026.1 1081c-9.9453-29.363-31.379-57.609-57.227-75.43-31.367-21.621-82.23-41.281-136.57-52.789l-31.094-6.5859-26 27.055c-31.023 32.281-53.113 47.703-80.039 55.879-44.672 13.57-87.078 0.58984-126.29-38.66-11.297-11.309-25.695-28.586-31.996-38.395-6.3008-9.8086-13.648-18.543-16.328-19.414-6.6602-2.1641-107.26 3.3984-185.47 10.25-73.316 6.4258-165.37 17.074-235.86 27.293-26.527 3.8438-48.754 6.9883-49.395 6.9883s-1.168-8.8125-1.168-19.586v-19.586l34.531-4.8867c148.63-21.031 284.77-34.48 383.4-37.875l50.246-1.7305 30.113-13.793c16.562-7.5859 40.398-16.578 52.973-19.98 26.723-7.2344 81.168-10.578 103.86-6.3789 12.926 2.3945 15.496 2.1211 17.633-1.8672 3.3516-6.2617 3.7734-98.027 0.47656-103.1-2.2148-3.4062-5.2891-3.3359-20.781 0.50391-47.227 11.676-79.852 14.906-149.91 14.84-39.242 0-80.395-1.6289-95.926-3.7188-82.414-11.078-161.64-28.762-233.38-52.09-66.664-21.68-77.195-28.648-70.379-46.578 5.668-14.902 12.184-14.531 66.41 3.7734 121.97 41.18 227.22 60.043 334.7 59.992 71.703 0 133.9-8.5469 164.65-22.531 6.3008-2.8672 16.594-6.3594 22.879-7.7656 6.4102-1.4336 11.766-4.4414 12.199-6.8516 0.71094-3.9453-24.582-22.531-37.207-27.332-3.1641-1.2031-14.184 2.8242-30.066 10.988-51.715 26.582-107.76 37.406-160.55 31.008-38.5-4.6641-62.242-11.738-96.465-28.742-101.48-50.418-160.34-150.99-155.16-265.11 1.8945-41.707 8.793-69.75 26.223-106.54 16.23-34.266 32.426-56.91 59.191-82.766 35.379-34.176 78.566-58.508 127.02-71.559 28.754-7.7461 108.69-7.7461 137.45 0 65.238 17.574 127.61 60.984 164.36 114.41 25.316 36.797 44.25 90.941 47.707 136.44 1.1328 14.914 4.5078 31.18 8.7148 42.008 14.723 37.891 7.0547 69.66-24.145 100.03-9.5391 9.2852-22.348 24.617-28.461 34.066s-18.57 25.953-27.684 36.668c-9.1094 10.723-16.102 19.938-15.531 20.48 0.56641 0.53906 12.586 9.4922 26.703 19.883 16.578 12.195 27.414 18.336 30.594 17.328 11.637-3.6953 77.996-15.414 105.12-18.57 38.777-4.5078 116.16-2.2266 139.29 4.1016 85.625 23.445 119.69 89.902 91.621 178.75-9.1172 28.867-26.684 49.57-54.129 63.797-21.84 11.32-19.918 4.1406-24.922 93.301-2.7461 48.945-2.7891 66.117-0.19141 74.781 6 20.031 5.5703 20.609-15.332 20.609-15.258 0-19.016-0.92578-20.398-5.0117zm-336.02-72.883c23.086-6.7266 50.668-27.543 76.559-57.789 17.625-20.59 19.559-27.141 5.9336-20.094-58.023 30.008-136.71 30.625-207.77 1.6367-8.582-3.5-15.035-4.8359-15.035-3.1094 0 5.7773 18.344 29.93 35.941 47.324 32.789 32.41 67.012 42.914 104.37 32.031zm350.77-30.203c3.7734-63.883 3.875-62.395-4.2227-61.48-3.9023 0.44531-8.1797 1.8789-9.4961 3.1992-1.3203 1.3203-3.5625 18.785-4.9805 38.812-2.4727 34.906-2.3242 36.762 3.5938 44.766 10.848 14.672 12.957 11.137 15.109-25.297zm-40.512-22.906c1.0039-10.629 1.8359-22.262 1.8477-25.848l0.027344-6.5156-43.668 0.79297c-39.633 0.71875-43.668 1.2617-43.668 5.8789 0 3.6211 6.6016 7.957 22.883 15.035 12.586 5.4727 29.98 14.414 38.656 19.871s17.199 9.9688 18.941 10.02c1.8359 0 3.9336-8.0312 4.9922-19.23zm-349.04-26.289c0.90625-1.4648 0.27344-3.5117-1.3984-4.5508-4.2383-2.6211-12.117 0.81641-9.9453 4.332 2.2383 3.6211 9.1602 3.7539 11.344 0.21484zm27.324-1.6289c0-2.3633-1.1289-4.293-2.5117-4.293s-4.1172 1.9336-6.0781 4.293c-2.9766 3.5898-2.5664 4.2969 2.5117 4.2969 3.4922 0 6.0781-1.8281 6.0781-4.2969zm-54.406-4.293c0-1.5742-2.5781-2.8633-5.7266-2.8633-3.1484 0-5.7266 1.2891-5.7266 2.8633 0 1.5742 2.5781 2.8633 5.7266 2.8633 3.1484 0 5.7266-1.2891 5.7266-2.8633zm97.359 0c0-1.5742-1.9336-2.8633-4.2969-2.8633s-4.2969 1.2891-4.2969 2.8633c0 1.5742 1.9336 2.8633 4.2969 2.8633s4.2969-1.2891 4.2969-2.8633zm-121.7-10.223c0-2.9961-2.2578-5.8828-5.0195-6.4141-6.3438-1.2188-10.117 7.7266-4.7031 11.152 5.6758 3.5898 9.7227 1.6172 9.7227-4.7383zm64.43 4.4961c0-1.5742-1.2891-2.8633-2.8633-2.8633s-2.8633 1.2891-2.8633 2.8633 1.2891 2.8633 2.8633 2.8633 2.8633-1.2891 2.8633-2.8633zm79.688-3.8711c0.73047-3.7812-0.44531-4.957-4.2305-4.2305-2.8828 0.55078-5.6914 3.3672-6.2461 6.2461-0.73047 3.7812 0.44531 4.957 4.2305 4.2305 2.8828-0.55078 5.6914-3.3672 6.2461-6.2461zm-96.176-9.1055c-3.418-6.1094-7.8398-0.57422-5.1484 6.4336 1.2656 3.2969 2.668 3.75 4.8438 1.5703 2.0312-2.0273 2.1328-4.7383 0.30078-8.0039zm-61.07-3.3828c4.8203-5.8477 7.707-11.688 6.4219-12.973-3.1523-3.1523-34.812 9.1641-34.812 13.539 0 3.4727 9.9414 9.5078 16.258 9.8711 1.8555 0.13281 7.3125-4.5898 12.133-10.438zm31.742 7.7695c0-1.5742-1.9336-2.8633-4.2969-2.8633s-4.2969 1.2891-4.2969 2.8633c0 1.5742 1.9336 2.8633 4.2969 2.8633s4.2969-1.2891 4.2969-2.8633zm91.688-1.5c1.9922-2.3984 2.8242-5.1602 1.8516-6.1328-2.0781-2.0781-10.5 4.3242-10.5 7.9844 0 3.9453 4.668 2.9453 8.6484-1.8516zm56.391-0.28906c0.58203-1.7734-2.1836-3.8438-6.1523-4.6016-8.4531-1.6133-10.41-0.32422-8.2148 5.3906 1.8125 4.7227 12.75 4.1211 14.367-0.79297zm-90.812-2.5039c0-2.3633-1.2891-4.2969-2.8633-4.2969s-2.8633 1.9336-2.8633 4.2969 1.2891 4.293 2.8633 4.293 2.8633-1.9336 2.8633-4.293zm19.945-1.2422c4.4375-8.2891 3.6133-11.641-2.8516-11.641-6.418 0-10.023 6.2227-7.4648 12.887 2.2734 5.918 6.7734 5.3789 10.316-1.2422zm-60.605-3.625c5.1719-5.1719 4.1328-10.879-1.9844-10.879-5.6328 0-10.109 7.1758-7.3047 11.711 2.1875 3.5391 5.1875 3.2695 9.2891-0.82812zm29.008-1.9141c1.5742-2.9453 2.0625-6.1523 1.082-7.1328-2.5039-2.5039-9.4688 3.7812-9.4688 8.5391 0 5.6914 5.043 4.8477 8.3906-1.4062zm-51.34-4.6719c0-4.8203-0.52344-5.0117-6.9258-2.5586-6.3984 2.457-5.6289 6.8516 1.1992 6.8516 3.1797 0 5.7266-1.9102 5.7266-4.2969zm114.64-2.9844c5.1445-6.1992 0.98828-9.2969-17.059-12.723-19.324-3.6641-71.812-3.8203-71.812-0.21484 0 5.4219 7.625 7.0625 34.309 7.375 19.406 0.22656 29.73 1.6797 35.848 5.0352 10.836 5.9414 14.141 6.0352 18.715 0.52734zm-100.32-10.207c0-3.2734-7.7656-3.3438-9.7734-0.12109-0.83594 1.3555-0.78906 3.1992 0.11328 4.0977 2.2344 2.2344 9.6641-0.83984 9.6641-4.0039zm375.54 1.0312c3.7148-3.7148 11.445-118.87 8.1953-122.12-2.8281-2.8242-143.55-22.387-145.69-20.254-0.66016 0.66016 6.0859 15.727 14.988 33.48 15.668 31.246 30.449 78.266 30.449 96.871 0 16.285 5.3828 18.035 49.73 16.137 21.949-0.9375 40.992-2.793 42.316-4.1211zm-131.58-12.18c-1.6289-18.777-12.359-52.926-23.844-75.883-14.68-29.352-38.762-61.172-48.234-63.738-12.41-3.3633-32.547-2.0352-43.742 2.8867l-10.738 4.7227v61.801c0 72.48 0.51562 73.656 22.762 51.742 10.047-9.8945 15.551-13.266 20.512-12.559 9.1836 1.3047 10.246 9.9453 2.2695 18.438-4.0391 4.3008-5.5 7.9531-3.8398 9.5977 1.4766 1.4609 14.922 4.6328 29.887 7.0508 14.961 2.418 30.426 4.9219 34.363 5.5664 3.9375 0.63672 10.379 0.99609 14.316 0.79297 6.3789-0.33594 7.0625-1.4766 6.2891-10.406zm177.32-10.445c0.97656-7.8867 2.7148-30.637 3.8633-50.559l2.0898-36.219-7.5195-3.4258c-4.5703-2.082-8.4922-2.3906-9.9961-0.78125-2.8398 3.0312-9.8516 103.18-7.4922 107 0.85547 1.3867 5.0938 1.5781 9.418 0.43359 6.8906-1.8398 8.0781-3.8672 9.6367-16.438zm46.938-16.199c14.109-20.012 20.098-71.152 11.34-96.859-18.648-54.734-107.37-72.652-239.8-48.434-52.066 9.5234-44.031 12.684 70.43 27.703 89.945 11.805 97.23 13.195 117.64 22.496 25.16 11.465 23.309 4.9766 18.723 65.57-3.6016 47.605-3.0508 50.258 8.6953 41.895 4.7031-3.3477 10.543-8.9141 12.98-12.375zm-471.27-162.19c27.457-7.9883 57.734-22.047 80.719-37.477 17.766-11.926 62.648-54.898 62.648-59.984 0-1.3945-2.5781-3.3516-5.7266-4.3516-11.125-3.5312-6.3828-11.75 13.418-23.246 21.805-12.66 46.246-35.184 54.086-49.844 3.6289-6.7852 5.3164-15.879 5.3086-28.566-0.027343-25.68-9.6914-43.457-39.293-72.238-21.422-20.828-22.754-22.793-18.391-27.156 4.3633-4.3633 5.9375-3.7344 21.75 8.6875 9.375 7.3672 17.949 13.391 19.051 13.391 3.5156 0-1.8398-32.141-9.3008-55.84-21.785-69.195-69.934-126.02-134.5-158.72-117.86-59.711-261.94-23.168-338.5 85.855-8.0312 11.438-14.602 22.199-14.605 23.922-0.003907 2.1836 16.621 2.875 55.07 2.2891 49.547-0.75781 55.438-0.34375 58.703 4.125 4.6953 6.418 4.5781 8.2422-0.86719 13.691-3.1562 3.1562-9.9922 4.5-22.906 4.5-10.125 0-18.406 0.58594-18.406 1.3047s3.2227 6.0508 7.1602 11.852c20.074 29.582-1.5352 69.883-37.465 69.883-35.93 0-57.098-35.059-40.176-66.543l7.293-13.57-7.3633-7.3633c-4.0508-4.0508-7.793-6.9375-8.3125-6.418-3.3242 3.3242-13.148 30.957-18.707 52.621-9.5703 37.281-9.1172 89.258 1.1094 127.95 26.41 99.902 102.32 172.05 205.6 195.43 27.492 6.2188 94.75 3.9258 122.61-4.1836zm64.152-107.73c-0.94922-2.4688-0.34766-5.8633 1.3281-7.5391 4.4531-4.4531 12.027-0.53906 12.027 6.2109 0 7.0625-10.746 8.1328-13.355 1.3281zm40.164-11.262c-0.90625-2.3633-0.87109-6.3203 0.082032-8.7969 0.94922-2.4766 0.49219-6.8086-1.0156-9.625-3.7422-6.9922 2.9297-16.152 9.8359-13.504 3.6875 1.4141 4.6367 4.0195 3.543 9.7422-0.82031 4.293-0.23438 10.16 1.3047 13.031 1.918 3.582 1.7227 6.5156-0.61719 9.3359-4.4414 5.3516-11.043 5.2578-13.129-0.1875zm-175.71-0.3125c-46.859-5.4883-55.066-7.1914-65.094-13.5-16.66-10.48-30.898-14.047-51.723-12.961-16.793 0.87891-19.219 0.35547-20.137-4.3438-1.4102-7.2266 17.184-25.918 52.004-52.273 51.27-38.801 90.098-53.953 133.61-52.133 18.992 0.79687 28.016 2.7227 40.953 8.75 22.93 10.68 48.645 36.969 59.426 60.75 11.25 24.809 10.906 31.305-2.3633 44.574-16.48 16.48-33.129 20.477-89.406 21.469-25.984 0.46484-51.758 0.30078-57.27-0.33984zm117.56-21.082c10.441-2.9805 22.754-12.422 22.754-17.445 0-4.707-15.086-8.9023-25.195-7.0039-10.582 1.9844-32.074 19.758-32.074 26.523 0 3.4844 2.4219 4 12.168 2.5938 6.6953-0.96875 16.75-3.0664 22.348-4.6641zm-126.29-143.98c-20.891-14.078-27.879-44.355-14.438-62.535 7.4961-10.141 5.7734-13.258-8.043-14.566-11.742-1.1094-17.484-8.3203-11.941-14.996 3.2422-3.9062 13.215-4.5352 71.785-4.5352 72.73 0 77.281 0.88281 73.062 14.18-1.6797 5.2969-4.1875 5.8633-25.84 5.8633-13.188 0-24.727 1.2109-25.641 2.6914-0.91406 1.4805 0.9375 6.957 4.1172 12.168 7.7031 12.633 7.7422 34.891 0.089843 47.445-12.613 20.691-43.332 27.637-63.148 14.281z" fill="#171717"/>
</svg>
